<?xml version="1.0" encoding="utf-8"?>
<!-- Generator: Adobe Illustrator 26.0.2, SVG Export Plug-In . SVG Version: 6.00 Build 0)  -->
<svg version="1.1" id="Layer_1" xmlns="http://www.w3.org/2000/svg" xmlns:xlink="http://www.w3.org/1999/xlink" x="0px" y="0px"
	 viewBox="0 0 151.43 63.65" style="enable-background:new 0 0 151.43 63.65;" xml:space="preserve">
<style type="text/css">
	.st0{fill:#F60A0A;}
	.st1{fill:#FEFEFE;}
	.st2{fill:#F60B0B;}
</style>
<g>
	<path class="st0" d="M32.62,29.43c-0.18,0.22-0.3,0.36-0.4,0.5c-1.95,2.52-3.76,5.15-5.63,7.73c-0.51,0.7-1,1.41-1.56,2.06
		c-1.38,1.6-3.53,2.18-5.39,1.28c-0.74-0.36-1.36-0.87-1.87-1.55c-2.39-3.14-4.67-6.37-7.02-9.55c-0.09-0.12-0.19-0.23-0.29-0.37
		c-0.1,0.17-0.06,0.33-0.06,0.47c0,5.35,0,10.7,0,16.05c0,0.58-0.02,1.16-0.05,1.74c-0.1,1.91-1.02,2.75-2.57,3.01
		c-1.43,0.24-2.87,0.27-4.28-0.12c-1.23-0.34-1.81-1.23-1.98-2.43c-0.07-0.46-0.08-0.93-0.08-1.39c0-9.67,0-19.34,0-29.01
		c0-0.79,0.03-1.57,0.35-2.32c0.29-0.67,0.76-1.13,1.44-1.33c1.89-0.55,3.78-0.57,5.65,0.15c0.55,0.21,0.93,0.62,1.28,1.08
		c3.69,4.84,7.37,9.68,11.06,14.51c0.08,0.1,0.16,0.2,0.26,0.32c0.09-0.12,0.18-0.22,0.26-0.32c3.77-4.97,7.53-9.95,11.37-14.87
		c0.52-0.67,1.25-0.94,2.04-1.08c1.43-0.26,2.87-0.28,4.29,0.08c1.2,0.3,1.8,0.88,2.11,2.45c0.12,0.61,0.09,1.24,0.09,1.86
		c0,9.45,0,18.89,0,28.34c0,0.85-0.1,1.69-0.43,2.48c-0.32,0.78-0.85,1.33-1.69,1.51c-1.67,0.36-3.33,0.4-4.98-0.12
		c-1.12-0.35-1.7-1.13-1.82-2.29c-0.07-0.7-0.09-1.41-0.09-2.11c0-5.39,0-10.79,0-16.18C32.62,29.85,32.62,29.7,32.62,29.43z"/>
	<path class="st0" d="M98.17,52.34c3.66,1.47,7.29,2.97,11.16,3.81c2.31,0.5,4.54,0.27,6.74-0.52c0.14-0.05,0.27-0.15,0.47-0.1
		c-0.09,0.1-0.17,0.2-0.26,0.28c-2.02,2.09-4.06,4.17-6.07,6.28c-0.29,0.31-0.57,0.37-0.96,0.34c-4.13-0.36-8-1.61-11.74-3.32
		c-3.46-1.58-6.58-3.71-9.66-5.91c-0.8-0.57-1.62-0.98-2.6-1.22c-5.94-1.43-10.51-4.85-13.98-9.81c-2.83-4.04-4.31-8.53-4.53-13.44
		c-0.21-4.7,0.42-9.28,2.57-13.52c3.7-7.31,9.53-11.97,17.65-13.46c5.9-1.08,11.72-0.61,17.12,2.21
		c7.17,3.74,11.65,9.62,13.16,17.62c0.98,5.19,0.69,10.33-1.28,15.27c-2.64,6.59-7.12,11.46-13.78,14.2
		c-1.21,0.5-2.47,0.87-3.75,1.16C98.35,52.22,98.26,52.22,98.17,52.34z"/>
	<path class="st0" d="M135.99,51.47c-7.59,0.02-13.97-6.43-14.03-13.75c-0.07-8.7,7.53-14.13,14.05-14.13
		c6.58,0,13.94,5.37,13.99,13.84C150.05,44.77,144.19,51.46,135.99,51.47z"/>
	<path class="st0" d="M50.78,37.65c0-3.12,0-6.24,0-9.36c0-0.76,0.05-1.51,0.31-2.25c0.25-0.7,0.71-1.13,1.38-1.38
		c0.72-0.27,1.48-0.35,2.24-0.38c0.99-0.04,1.98-0.01,2.93,0.29c1.23,0.39,1.85,1.19,1.96,2.47c0.06,0.63,0.07,1.27,0.07,1.9
		c0,6,0,12,0,18c0,0.83-0.04,1.65-0.4,2.44c-0.29,0.64-0.74,1.07-1.4,1.26c-1.76,0.51-3.54,0.52-5.3,0
		c-1.13-0.33-1.53-1.25-1.72-2.3c-0.09-0.49-0.09-0.98-0.09-1.48C50.78,43.8,50.78,40.73,50.78,37.65z"/>
	<path class="st0" d="M59.68,16.19c-0.01,0.84,0.02,1.69-0.26,2.51c-0.34,0.99-1.03,1.55-2.04,1.73c-1.4,0.26-2.8,0.27-4.21,0.01
		c-1.35-0.25-2-0.82-2.29-2.49c-0.21-1.2-0.2-2.43,0-3.62c0.25-1.49,0.77-2.01,2.04-2.34c1.5-0.38,3.02-0.38,4.53-0.03
		c1.26,0.3,1.82,0.89,2.15,2.46C59.71,14.99,59.68,15.59,59.68,16.19z"/>
	<path class="st1" d="M113.74,26.62c-0.43,8.92-4.25,15.85-12.46,19.73c-7.69,3.64-15.16,2.66-21.93-2.5
		c-4.53-3.45-7.14-8.15-8.06-13.76C69.7,20.44,74.61,10.8,83.47,6.76c7.72-3.53,15.15-2.61,21.9,2.54
		c4.53,3.45,7.12,8.16,8.06,13.76C113.63,24.23,113.71,25.41,113.74,26.62z"/>
	<path class="st1" d="M140.97,37.48c0.01,2.82-2.22,5.05-5.04,5.05c-2.77,0-4.93-2.16-4.93-4.94c-0.01-2.88,2.1-5.02,4.97-5.03
		C138.87,32.55,140.96,34.6,140.97,37.48z"/>
	<path class="st0" d="M77.31,31.68c0.94,4.17,3.53,7.02,7.29,8.76c5.75,2.67,11.48,2.48,16.97-0.79c2.69-1.6,4.58-3.93,5.38-7.03
		c0.13-0.51,0.2-1.04,0.32-1.68c0.33,2.36-0.1,4.47-1.21,6.44c-1.62,2.87-4.09,4.8-7.13,5.92c-5.85,2.16-11.46,1.68-16.66-1.87
		c-2.48-1.69-4.16-4.01-4.81-7C77.26,33.52,77.19,32.61,77.31,31.68z"/>
	<path class="st2" d="M86.08,19.69c0.8,0,1.48,0.68,1.47,1.48c-0.01,0.79-0.67,1.44-1.46,1.45c-0.8,0-1.48-0.68-1.47-1.48
		C84.63,20.35,85.3,19.69,86.08,19.69z"/>
	<path class="st2" d="M98.11,22.61c-0.8-0.01-1.47-0.7-1.45-1.5c0.02-0.78,0.7-1.43,1.48-1.42c0.8,0.01,1.47,0.7,1.45,1.5
		C99.57,21.98,98.89,22.62,98.11,22.61z"/>
</g>
</svg>
